<svg width="1380" height="392" viewBox="0 0 1380 392" fill="none" xmlns="http://www.w3.org/2000/svg">
<g filter="url(#filter0_f_263_1175)">
<path d="M447.333 310.637V92.4278H474.912V277.602L580.076 153.951L616.142 154.254L551.891 231.233L618.869 310.637H581.895L533.101 252.751L484.61 310.637H447.333ZM757.561 310.334C753.621 303.363 750.59 295.786 748.772 286.998C733.618 301.545 713.313 310.637 691.795 310.637C648.759 310.637 609.664 282.148 609.664 232.445C609.664 182.439 648.759 154.254 691.795 154.254C712.404 154.254 731.8 162.437 746.65 175.772V155.466H773.926V265.48C773.926 283.361 778.169 298.817 786.655 310.334H757.561ZM691.795 285.179C720.283 285.179 746.347 266.086 746.347 232.445C746.347 198.805 720.283 179.711 691.795 179.711C663.307 179.711 637.243 198.805 637.243 232.445C637.243 266.086 663.307 285.179 691.795 285.179ZM810.47 310.637V154.254H838.049V310.637H810.47ZM810.47 93.6401H838.049V121.219H810.47V93.6401ZM938.334 310.637C899.844 310.637 868.325 294.574 868.325 259.418H897.723C897.723 276.693 909.239 286.694 940.152 286.694C967.125 286.694 978.339 274.875 978.339 263.964C978.339 253.963 972.58 244.871 950.76 243.053L916.513 240.325C877.417 236.991 869.234 218.504 869.234 202.138C869.234 175.468 894.692 154.254 934.697 154.254C973.793 154.254 1001.67 169.104 1001.67 203.048H973.187C973.187 187.591 961.973 177.893 934.091 177.893C906.815 177.893 896.51 191.834 896.51 202.138C896.51 212.443 904.087 218.807 920.756 220.323L950.456 223.05C992.886 226.081 1005.31 240.628 1005.61 262.752C1005.92 287.907 983.491 310.637 938.334 310.637ZM1114.63 310.637C1064.32 311.243 1029.47 277.905 1029.47 232.445C1029.47 191.531 1059.78 154.254 1112.21 154.254C1159.79 154.254 1193.43 187.591 1193.43 231.233V233.658L1193.13 239.719H1057.96C1059.78 265.48 1083.12 286.391 1114.63 285.179C1135.55 284.27 1150.4 272.753 1156.15 263.964L1183.73 271.541C1173.43 290.634 1147.37 310.031 1114.63 310.637ZM1164.94 222.747C1162.82 200.926 1141.3 179.711 1112.21 179.711C1085.54 179.711 1062.81 195.471 1058.26 222.747H1164.94ZM1222.58 310.637V154.254H1250.16V179.711C1263.19 166.983 1283.5 154.254 1304.71 154.254C1344.11 154.254 1366.24 181.53 1366.24 214.867V310.637H1338.66V214.867C1338.66 192.137 1321.38 179.408 1301.38 179.711C1278.04 180.014 1260.16 194.259 1250.16 213.958V310.637H1222.58Z" fill="white" fill-opacity="0.62"/>
</g>
<path d="M447.333 310.637V92.4278H474.912V277.602L580.076 153.951L616.142 154.254L551.891 231.233L618.869 310.637H581.895L533.101 252.751L484.61 310.637H447.333ZM757.561 310.334C753.621 303.363 750.59 295.786 748.772 286.998C733.618 301.545 713.313 310.637 691.795 310.637C648.759 310.637 609.664 282.148 609.664 232.445C609.664 182.439 648.759 154.254 691.795 154.254C712.404 154.254 731.8 162.437 746.65 175.772V155.466H773.926V265.48C773.926 283.361 778.169 298.817 786.655 310.334H757.561ZM691.795 285.179C720.283 285.179 746.347 266.086 746.347 232.445C746.347 198.805 720.283 179.711 691.795 179.711C663.307 179.711 637.243 198.805 637.243 232.445C637.243 266.086 663.307 285.179 691.795 285.179ZM810.47 310.637V154.254H838.049V310.637H810.47ZM810.47 93.6401H838.049V121.219H810.47V93.6401ZM938.334 310.637C899.844 310.637 868.325 294.574 868.325 259.418H897.723C897.723 276.693 909.239 286.694 940.152 286.694C967.125 286.694 978.339 274.875 978.339 263.964C978.339 253.963 972.58 244.871 950.76 243.053L916.513 240.325C877.417 236.991 869.234 218.504 869.234 202.138C869.234 175.468 894.692 154.254 934.697 154.254C973.793 154.254 1001.67 169.104 1001.67 203.048H973.187C973.187 187.591 961.973 177.893 934.091 177.893C906.815 177.893 896.51 191.834 896.51 202.138C896.51 212.443 904.087 218.807 920.756 220.323L950.456 223.05C992.886 226.081 1005.31 240.628 1005.61 262.752C1005.92 287.907 983.491 310.637 938.334 310.637ZM1114.63 310.637C1064.32 311.243 1029.47 277.905 1029.47 232.445C1029.47 191.531 1059.78 154.254 1112.21 154.254C1159.79 154.254 1193.43 187.591 1193.43 231.233V233.658L1193.13 239.719H1057.96C1059.78 265.48 1083.12 286.391 1114.63 285.179C1135.55 284.27 1150.4 272.753 1156.15 263.964L1183.73 271.541C1173.43 290.634 1147.37 310.031 1114.63 310.637ZM1164.94 222.747C1162.82 200.926 1141.3 179.711 1112.21 179.711C1085.54 179.711 1062.81 195.471 1058.26 222.747H1164.94ZM1222.58 310.637V154.254H1250.16V179.711C1263.19 166.983 1283.5 154.254 1304.71 154.254C1344.11 154.254 1366.24 181.53 1366.24 214.867V310.637H1338.66V214.867C1338.66 192.137 1321.38 179.408 1301.38 179.711C1278.04 180.014 1260.16 194.259 1250.16 213.958V310.637H1222.58Z" fill="white"/>
<rect y="22.7202" width="347.697" height="347.697" rx="100.491" fill="url(#paint0_linear_263_1175)"/>
<g opacity="0.9">
<g filter="url(#filter1_f_263_1175)">
<path d="M179.656 293.425V179.837L254.051 91.6527V139.918L209.414 192.539L308.123 234.273L264.938 249.514L186.551 218.668V228.103L209.051 236.45V328.99L179.656 293.425Z" fill="url(#paint1_linear_263_1175)"/>
<path d="M166.954 212.498V98.9102L136.833 63.7089V155.886L158.97 164.595V173.668L80.9463 142.458L39.5757 158.426L136.833 199.434L92.1962 252.78V301.409L166.954 212.498Z" fill="url(#paint2_linear_263_1175)"/>
</g>
<path d="M179.656 293.425V179.837L254.051 91.6527V139.918L209.414 192.539L308.123 234.273L264.938 249.514L186.551 218.668V228.103L209.051 236.45V328.99L179.656 293.425Z" fill="url(#paint3_linear_263_1175)" stroke="url(#paint4_linear_263_1175)" stroke-width="0.979137"/>
<path d="M166.954 212.498V98.9102L136.833 63.7089V155.886L158.97 164.595V173.668L80.9463 142.458L39.5757 158.426L136.833 199.434L92.1962 252.78V301.409L166.954 212.498Z" fill="url(#paint5_linear_263_1175)" stroke="url(#paint6_linear_263_1175)" stroke-width="0.979137"/>
</g>
<defs>
<filter id="filter0_f_263_1175" x="438.733" y="83.8279" width="936.105" height="236.015" filterUnits="userSpaceOnUse" color-interpolation-filters="sRGB">
<feFlood flood-opacity="0" result="BackgroundImageFix"/>
<feBlend mode="normal" in="SourceGraphic" in2="BackgroundImageFix" result="shape"/>
<feGaussianBlur stdDeviation="4.3" result="effect1_foregroundBlur_263_1175"/>
</filter>
<filter id="filter1_f_263_1175" x="31.7374" y="55.8706" width="284.224" height="280.957" filterUnits="userSpaceOnUse" color-interpolation-filters="sRGB">
<feFlood flood-opacity="0" result="BackgroundImageFix"/>
<feBlend mode="normal" in="SourceGraphic" in2="BackgroundImageFix" result="shape"/>
<feGaussianBlur stdDeviation="3.91913" result="effect1_foregroundBlur_263_1175"/>
</filter>
<linearGradient id="paint0_linear_263_1175" x1="347.697" y1="22.7203" x2="4.14487e-05" y2="370.417" gradientUnits="userSpaceOnUse">
<stop stop-color="#B37CFF"/>
<stop offset="0.5" stop-color="#720DFF"/>
<stop offset="1" stop-color="#A96CFF"/>
</linearGradient>
<linearGradient id="paint1_linear_263_1175" x1="243.89" y1="91.6527" x2="243.89" y2="328.99" gradientUnits="userSpaceOnUse">
<stop stop-color="white"/>
<stop offset="1" stop-color="#F8F8F8"/>
</linearGradient>
<linearGradient id="paint2_linear_263_1175" x1="103.265" y1="63.7089" x2="103.265" y2="301.409" gradientUnits="userSpaceOnUse">
<stop stop-color="white"/>
<stop offset="0.5" stop-color="#E8E8E8"/>
<stop offset="1" stop-color="#F8F8F8"/>
</linearGradient>
<linearGradient id="paint3_linear_263_1175" x1="243.89" y1="91.6527" x2="243.89" y2="328.99" gradientUnits="userSpaceOnUse">
<stop stop-color="white"/>
<stop offset="1" stop-color="#F8F8F8"/>
</linearGradient>
<linearGradient id="paint4_linear_263_1175" x1="243.89" y1="91.6527" x2="243.89" y2="328.99" gradientUnits="userSpaceOnUse">
<stop stop-color="white"/>
<stop offset="1" stop-color="white" stop-opacity="0"/>
</linearGradient>
<linearGradient id="paint5_linear_263_1175" x1="103.265" y1="63.7089" x2="103.265" y2="301.409" gradientUnits="userSpaceOnUse">
<stop stop-color="white"/>
<stop offset="0.5" stop-color="#E8E8E8"/>
<stop offset="1" stop-color="#F8F8F8"/>
</linearGradient>
<linearGradient id="paint6_linear_263_1175" x1="103.265" y1="63.7089" x2="103.265" y2="301.409" gradientUnits="userSpaceOnUse">
<stop stop-color="white"/>
<stop offset="1" stop-color="#999999"/>
</linearGradient>
</defs>
</svg>
